<?xml version="1.0" encoding="utf-8"?>
<!-- Generator: Adobe Illustrator 18.0.0, SVG Export Plug-In . SVG Version: 6.00 Build 0)  -->
<!DOCTYPE svg PUBLIC "-//W3C//DTD SVG 1.1//EN" "http://www.w3.org/Graphics/SVG/1.1/DTD/svg11.dtd">
<svg version="1.1" id="Layer_1" xmlns="http://www.w3.org/2000/svg" xmlns:xlink="http://www.w3.org/1999/xlink" x="0px" y="0px"
	 viewBox="0 0 126 17.2" enable-background="new 0 0 126 17.2" xml:space="preserve">
<g>
	<polygon fill="#F1A81E" points="9,0 11.2,6.6 18.1,6.6 12.5,10.6 14.6,17.2 9,13.1 3.5,17.2 5.6,10.6 0,6.6 6.9,6.6 	"/>
	<polygon fill="#F1A81E" points="35.9,0 38,6.6 44.9,6.6 39.3,10.6 41.5,17.2 35.9,13.1 30.3,17.2 32.4,10.6 26.9,6.6 33.8,6.6 	"/>
	<polygon fill="#F1A81E" points="62.7,0 64.9,6.6 71.8,6.6 66.2,10.6 68.3,17.2 62.7,13.1 57.2,17.2 59.3,10.6 53.7,6.6 60.6,6.6 	
		"/>
	<polygon fill="#F1A81E" points="89.6,0 91.7,6.6 98.6,6.6 93.1,10.6 95.2,17.2 89.6,13.1 84,17.2 86.1,10.6 80.6,6.6 87.5,6.6 	"/>
	<polygon fill="#F1A81E" points="117,0 119.1,6.6 126,6.6 120.4,10.6 122.5,17.2 117,13.1 111.4,17.2 113.5,10.6 107.9,6.6 
		114.8,6.6 	"/>
</g>
</svg>
