<?xml version="1.0" encoding="utf-8"?>
<!-- Generator: Adobe Illustrator 19.0.0, SVG Export Plug-In . SVG Version: 6.00 Build 0)  -->
<!DOCTYPE svg PUBLIC "-//W3C//DTD SVG 1.1//EN" "http://www.w3.org/Graphics/SVG/1.1/DTD/svg11.dtd">
<svg version="1.1" id="Layer_1" xmlns="http://www.w3.org/2000/svg" xmlns:xlink="http://www.w3.org/1999/xlink" x="0px" y="0px"
	 viewBox="-623 625 32 32" style="enable-background:new -623 625 32 32;" xml:space="preserve">
<path d="M-619,635h24c1.1,0,2-0.9,2-2s-0.9-2-2-2h-24c-1.1,0-2,0.9-2,2S-620.1,635-619,635z M-595,639h-24c-1.1,0-2,0.9-2,2
	s0.9,2,2,2h24c1.1,0,2-0.9,2-2S-593.9,639-595,639z M-595,647h-24c-1.1,0-2,0.9-2,2s0.9,2,2,2h24c1.1,0,2-0.9,2-2
	S-593.9,647-595,647z"/>
</svg>
