<?xml version="1.0" encoding="utf-8"?>
<!-- Generator: Adobe Illustrator 19.0.0, SVG Export Plug-In . SVG Version: 6.00 Build 0)  -->
<!DOCTYPE svg PUBLIC "-//W3C//DTD SVG 1.1//EN" "http://www.w3.org/Graphics/SVG/1.1/DTD/svg11.dtd">
<svg version="1.1" id="Layer_1" xmlns="http://www.w3.org/2000/svg" xmlns:xlink="http://www.w3.org/1999/xlink" x="0px" y="0px"
	 viewBox="0 0 277.6 87.7" enable-background="new 0 0 277.6 87.7" xml:space="preserve">
<circle fill="#E24301" cx="238.8" cy="43.4" r="38.8"/>
<g>
	<path fill="#FFFFFF" d="M245.4,87.7c-13.8,0-25.9-7.4-26.3-24.2h12.3c0.5,9.2,6.9,13,14,13c8,0,14-5.2,14-14.3
		c0-8.7-4.7-14.1-14.4-14.1H243V37.4h2.1c8.9,0,13-5.2,13-13c0-8.7-5.7-13.3-12.7-13.3c-7.5,0-12.3,4.7-12.9,12.3h-12.3
		C220.9,8.8,231.6,0,245.4,0c14.6,0,25,9.8,25,24c0,9.2-4.1,15.1-10.8,18.4c7.4,3.3,12.1,9.7,12.1,20.3
		C271.7,79.2,259.8,87.7,245.4,87.7z"/>
</g>
<g>
	<path fill="#707270" d="M7.3,71l-2.9,6.5H3.7l-3-6.5v7.9H0v-9.5h0.7l3.3,7.4l3.2-7.4h0.7v9.5H7.3V71z"/>
	<path fill="#707270" d="M15.8,76.6h-4.5l-0.8,2.3H9.7l3.5-9.5h0.6l3.5,9.5h-0.8L15.8,76.6z M11.6,76h4l-2-5.6L11.6,76z"/>
	<path fill="#707270" d="M22.4,74.5h-2.6v4.4h-0.7v-9.5h3.6c1.6,0,2.7,0.9,2.7,2.6c0,1.4-0.9,2.3-2.2,2.6l2.3,4.4h-0.8L22.4,74.5z
		 M22.6,70h-2.8v3.9h2.8c1.2,0,2.1-0.6,2.1-1.9S23.9,70,22.6,70z"/>
	<path fill="#707270" d="M30.9,73.6l-2.3,2.8v2.6h-0.7v-9.5h0.7v6l4.8-6h0.9l-3,3.6l3.4,5.9H34L30.9,73.6z"/>
	<path fill="#707270" d="M36.6,69.4h5.8V70h-5.1v3.8h4.3v0.6h-4.3v3.8h5.1v0.6h-5.8V69.4z"/>
	<path fill="#707270" d="M47.1,78.9h-0.7V70h-2.8v-0.6h6.4V70h-2.9V78.9z"/>
	<path fill="#707270" d="M51.8,69.4h0.7v9.5h-0.7V69.4z"/>
	<path fill="#707270" d="M56.2,70.6v8.3h-0.7v-9.5h0.7l5.5,8.3v-8.3h0.7v9.5h-0.7L56.2,70.6z"/>
	<path fill="#707270" d="M70.8,77.9c-0.6,0.7-1.5,1.1-2.5,1.1c-0.9,0-1.8-0.3-2.4-1C65,77.1,65,76.3,65,74.1c0-2.2,0-3,0.9-3.9
		c0.6-0.6,1.5-1,2.4-1c1.7,0,3,1.1,3.3,2.8h-0.7c-0.3-1.3-1.2-2.1-2.5-2.1c-0.7,0-1.3,0.3-1.8,0.7c-0.7,0.7-0.7,1.4-0.7,3.5
		c0,2,0.1,2.8,0.7,3.5c0.5,0.5,1.1,0.7,1.8,0.7c0.8,0,1.5-0.3,2-0.9c0.4-0.5,0.6-1.1,0.6-1.9v-0.9h-2.6V74h3.3v1.6
		C71.6,76.6,71.4,77.3,70.8,77.9z"/>
	<path fill="#707270" d="M83.1,77.8c-0.4,0.4-1.4,1.2-2.9,1.2c-1.8,0-3-1.1-3-2.7c0-1.5,1.1-2.2,2.2-3c-0.5-0.6-1.1-1.3-1.1-2.1
		c0-1.1,0.9-1.9,1.9-1.9s1.9,0.8,1.9,1.9c0,0.8-0.5,1.3-1.1,1.7c0,0-0.5,0.3-0.7,0.5l2.7,3.3c0.4-0.6,0.6-1.2,0.6-2.4h0.7
		c0,1.2-0.2,2.2-0.8,2.9l1.4,1.7H84L83.1,77.8z M77.9,76.2c0,1.2,0.9,2.1,2.2,2.1c0.8,0,1.6-0.2,2.5-1.1l-2.9-3.5
		C78.9,74.4,77.9,75,77.9,76.2z M80.3,69.9c-0.7,0-1.2,0.5-1.2,1.2c0,0.5,0.2,0.9,0.9,1.8l0.2-0.1c0.2-0.1,0.3-0.2,0.3-0.2
		c0.5-0.3,1-0.7,1-1.3C81.5,70.5,81,69.9,80.3,69.9z"/>
	<path fill="#707270" d="M93.9,79c-0.9,0-1.8-0.3-2.4-1c-0.9-0.9-0.9-1.7-0.9-3.9c0-2.2,0-3,0.9-3.9c0.6-0.6,1.5-1,2.4-1
		c1.7,0,2.9,1.1,3.2,2.8h-0.7c-0.3-1.3-1.2-2.1-2.5-2.1c-0.7,0-1.3,0.3-1.8,0.7c-0.7,0.7-0.7,1.4-0.7,3.5c0,2,0.1,2.8,0.7,3.5
		c0.5,0.5,1.1,0.7,1.8,0.7c1.3,0,2.3-0.8,2.5-2.1h0.7C96.8,77.9,95.6,79,93.9,79z"/>
	<path fill="#707270" d="M104.9,78c-0.6,0.6-1.5,1-2.4,1s-1.8-0.3-2.4-1c-0.9-0.9-0.9-1.7-0.9-3.9c0-2.2,0-3,0.9-3.9
		c0.6-0.6,1.5-1,2.4-1s1.8,0.3,2.4,1c0.9,0.9,0.9,1.7,0.9,3.9C105.8,76.3,105.8,77.1,104.9,78z M104.3,70.7
		c-0.5-0.5-1.1-0.7-1.8-0.7c-0.7,0-1.3,0.3-1.8,0.7c-0.7,0.7-0.7,1.4-0.7,3.5c0,2,0.1,2.8,0.7,3.5c0.5,0.5,1.1,0.7,1.8,0.7
		c0.7,0,1.3-0.3,1.8-0.7c0.7-0.7,0.7-1.4,0.7-3.5C105.1,72.1,105,71.4,104.3,70.7z"/>
	<path fill="#707270" d="M115.7,71l-2.9,6.5H112l-3-6.5v7.9h-0.7v-9.5h0.7l3.3,7.4l3.2-7.4h0.7v9.5h-0.7V71z"/>
	<path fill="#707270" d="M126.6,71l-2.9,6.5H123l-3-6.5v7.9h-0.7v-9.5h0.7l3.3,7.4l3.2-7.4h0.7v9.5h-0.7V71z"/>
	<path fill="#707270" d="M133.5,79c-1.9,0-3.3-1.3-3.3-3.2v-6.5h0.7v6.4c0,1.6,1,2.6,2.5,2.6c1.5,0,2.5-1,2.5-2.6v-6.4h0.7v6.5
		C136.7,77.7,135.4,79,133.5,79z"/>
	<path fill="#707270" d="M140.3,70.6v8.3h-0.7v-9.5h0.7l5.5,8.3v-8.3h0.7v9.5h-0.7L140.3,70.6z"/>
	<path fill="#707270" d="M149.5,69.4h0.7v9.5h-0.7V69.4z"/>
	<path fill="#707270" d="M156,79c-0.9,0-1.8-0.3-2.4-1c-0.9-0.9-0.9-1.7-0.9-3.9c0-2.2,0-3,0.9-3.9c0.6-0.6,1.5-1,2.4-1
		c1.7,0,2.9,1.1,3.2,2.8h-0.7c-0.3-1.3-1.2-2.1-2.5-2.1c-0.7,0-1.3,0.3-1.8,0.7c-0.7,0.7-0.7,1.4-0.7,3.5c0,2,0.1,2.8,0.7,3.5
		c0.5,0.5,1.1,0.7,1.8,0.7c1.3,0,2.3-0.8,2.5-2.1h0.7C159,77.9,157.7,79,156,79z"/>
	<path fill="#707270" d="M166.4,76.6H162l-0.8,2.3h-0.8l3.5-9.5h0.6l3.5,9.5h-0.8L166.4,76.6z M162.2,76h4l-2-5.6L162.2,76z"/>
	<path fill="#707270" d="M171.4,78.9h-0.7V70h-2.8v-0.6h6.4V70h-2.9V78.9z"/>
	<path fill="#707270" d="M176.1,69.4h0.7v9.5h-0.7V69.4z"/>
	<path fill="#707270" d="M185.1,78c-0.6,0.6-1.5,1-2.4,1s-1.8-0.3-2.4-1c-0.9-0.9-0.9-1.7-0.9-3.9c0-2.2,0-3,0.9-3.9
		c0.6-0.6,1.5-1,2.4-1s1.8,0.3,2.4,1c0.9,0.9,0.9,1.7,0.9,3.9C186,76.3,186,77.1,185.1,78z M184.5,70.7c-0.5-0.5-1.1-0.7-1.8-0.7
		c-0.7,0-1.3,0.3-1.8,0.7c-0.7,0.7-0.7,1.4-0.7,3.5c0,2,0.1,2.8,0.7,3.5c0.5,0.5,1.1,0.7,1.8,0.7c0.7,0,1.3-0.3,1.8-0.7
		c0.7-0.7,0.7-1.4,0.7-3.5C185.3,72.1,185.2,71.4,184.5,70.7z"/>
	<path fill="#707270" d="M189.3,70.6v8.3h-0.7v-9.5h0.7l5.5,8.3v-8.3h0.7v9.5h-0.7L189.3,70.6z"/>
	<path fill="#707270" d="M200.9,79c-1.4,0-2.3-0.4-3.2-1.3l0.5-0.5c0.9,0.9,1.6,1.1,2.7,1.1c1.5,0,2.5-0.7,2.5-2
		c0-0.6-0.2-1-0.5-1.3c-0.4-0.3-0.6-0.4-1.4-0.5l-1.1-0.2c-0.7-0.1-1.3-0.3-1.7-0.7c-0.5-0.4-0.8-1-0.8-1.8c0-1.6,1.1-2.6,3-2.6
		c1.2,0,1.9,0.3,2.7,1l-0.5,0.5c-0.6-0.5-1.2-0.9-2.3-0.9c-1.4,0-2.2,0.8-2.2,2c0,0.6,0.2,1,0.5,1.2c0.3,0.3,0.9,0.5,1.4,0.6l1,0.2
		c0.9,0.1,1.3,0.3,1.7,0.6c0.5,0.4,0.8,1.1,0.8,1.9C204.1,78,202.9,79,200.9,79z"/>
</g>
<g>
	<path fill="#707270" d="M15.7,44.1H4.5v17.4H0V19.3h15.7c7.7,0,13,4.8,13,12.4S23.4,44.1,15.7,44.1z M15.3,23.3H4.5v16.8h10.8
		c5.3,0,8.9-2.8,8.9-8.4C24.2,26.1,20.6,23.3,15.3,23.3z"/>
	<path fill="#707270" d="M63.3,61.5V42.2h-20v19.3h-4.5V19.3h4.5v18.9h20V19.3h4.5v42.2H63.3z"/>
	<path fill="#707270" d="M106.1,61.5l-3.4-9.5H84.3l-3.4,9.5h-4.8l15.5-42.2h3.8l15.5,42.2H106.1z M93.6,25.7L85.7,48h15.8
		L93.6,25.7z"/>
	<path fill="#707270" d="M130.1,61.8c-6.3,0-10.5-1.6-14.5-5.6l3.1-3.1c3.5,3.5,6.8,4.6,11.5,4.6c6.2,0,10-2.9,10-7.8
		c0-2.2-0.7-4.1-2-5.3c-1.4-1.2-2.4-1.5-5.5-2l-4.9-0.8c-3.3-0.5-5.9-1.6-7.8-3.2c-2.1-1.9-3.2-4.5-3.2-7.9
		c0-7.2,5.2-11.9,13.5-11.9c5.4,0,8.9,1.4,12.6,4.6l-2.9,2.9c-2.6-2.4-5.4-3.6-9.8-3.6c-5.6,0-8.9,3.1-8.9,7.8
		c0,2.1,0.6,3.7,1.9,4.9c1.3,1.1,3.5,2,5.7,2.3l4.6,0.7c4,0.6,5.9,1.4,7.7,3c2.3,2,3.6,4.9,3.6,8.4
		C144.7,57.3,138.8,61.8,130.1,61.8z"/>
	<path fill="#707270" d="M155.6,61.5V19.3h26.2v4h-21.7v14.9h18.5v4h-18.5v15.2h21.7v4H155.6z"/>
</g>
</svg>
